<?xml version="1.0" encoding="utf-8"?>
<!-- Generator: Adobe Illustrator 18.1.1, SVG Export Plug-In . SVG Version: 6.00 Build 0)  -->
<!DOCTYPE svg PUBLIC "-//W3C//DTD SVG 1.1//EN" "http://www.w3.org/Graphics/SVG/1.1/DTD/svg11.dtd" [
	<!ENTITY st0 "fill:#FFFFFF;">
]>
<svg version="1.1" id="Layer_1" xmlns="http://www.w3.org/2000/svg" xmlns:xlink="http://www.w3.org/1999/xlink" x="0px" y="0px"
	 viewBox="0 0 1992.2 320.5" style="enable-background:new 0 0 1992.2 320.5;" xml:space="preserve">
<g>
	<g>
		<path style="&st0;" d="M451.9,253.1l-64.2-170l-13.8-36l-18.1-47h-53.5l-32.7,85v0c4.9,14.6,7.6,30.2,7.6,46.4
			c0,53.6-29.3,100.4-72.6,125.4l-2.3,6.2h49.8l11.5-30.6l11.4-30.1h108.7l11.3,30.1l11.6,30.6h49.1L451.9,253.1z M291.9,158
			l36.3-96l1.2-3.2l0.9,2.5l36.6,96.7H291.9z"/>
		<path style="&st0;" d="M173.7,256.1c52.8-17.2,91-66.5,91-124.7c0-9-0.9-17.8-2.7-26.3C261,100,259.6,95,258,90
			c-3.8-11.3-9.1-21.9-15.6-31.6c-23.8-35.1-64.1-58.2-110-58.2C59.4,0.3,0.2,59,0.2,131.5c0,1.8,0.1,3.7,0.1,5.5
			c2.6,63.4,50.6,115.2,112.6,124.3c24.7,33.3,69.6,56.1,117.3,59.1l16.7-43.8c-3.2,0.1-7.3,0.2-9.5,0.2
			C213.2,276.7,191,268.9,173.7,256.1z M132.4,218.6c-15.3,0-29.6-3.9-42.2-10.7c-25.1-13.6-42.6-39-45.3-68.6
			c-0.2-2.6-0.4-5.2-0.4-7.8c0-48.2,39.4-87.2,87.9-87.2c21.9,0,41.8,7.9,57.2,21c12.1,10.3,21.3,23.8,26.4,39.2
			c0.2,0.7,0.4,1.5,0.6,2.2c2.3,7.9,3.7,16.2,3.7,24.8c0,44.2-33.2,80.7-76.3,86.3C140.2,218.3,136.4,218.6,132.4,218.6z"/>
	</g>
	<g>
		<path style="&st0;" d="M581.7,125.8v-25.7h-9.4V84.5h9.4V69h17.9v15.5h11.5v15.7h-11.5v20.6c0,3.3,1.9,5.7,5,5.7
			c2,0,4-0.7,4.6-1.4l3.5,13.6c-2.2,2.1-6.7,3.8-13.4,3.8C587.9,142.5,581.7,136.7,581.7,125.8z"/>
		<path style="&st0;" d="M620.2,141.1V84.5h18v6.9c3.8-4.6,10.9-8.4,17.7-8.4v17.3c-1.1-0.2-2.6-0.5-4.5-0.5c-4.7,0-10.9,2-13.2,5.2
			v36.1H620.2z"/>
		<path style="&st0;" d="M697.5,141.1v-5.6c-3.5,4.2-10.3,7-17.6,7c-8.7,0-19.5-5.9-19.5-18.6c0-13.7,10.8-18.2,19.5-18.2
			c7.5,0,14.2,2.3,17.6,6.6v-6.8c0-4.9-4.2-8.2-11.5-8.2c-5.6,0-11.5,2.1-16.1,6l-6.4-11.4c7.3-6.2,17-8.8,25.7-8.8
			c13.6,0,26.4,5,26.4,22.6v35.4H697.5z M697.5,126.5v-5c-1.9-2.6-6.1-4-10.1-4c-4.8,0-9,2.1-9,6.6c0,4.5,4.2,6.6,9,6.6
			C691.4,130.6,695.6,129.2,697.5,126.5z"/>
		<path style="&st0;" d="M767,141.1v-32.7c0-6.9-3.6-9.4-9.3-9.4c-5.4,0-8.9,2.9-11,5.5v36.6h-18V84.5h18v6.9
			c3.4-4,10.1-8.3,19.6-8.3c12.9,0,18.8,7.5,18.8,17.9v40.1H767z"/>
		<path style="&st0;" d="M793.4,133.8l7.5-12.4c4.2,3.8,13.2,7.5,19.9,7.5c5.4,0,7.6-1.8,7.6-4.3c0-7.4-32.9-0.1-32.9-22.9
			c0-10,8.6-18.6,24.3-18.6c9.5,0,17.6,3,23.7,7.5l-6.9,12c-3.4-3.3-9.8-6.2-16.6-6.2c-4.2,0-7.1,1.8-7.1,4.1
			c0,6.6,32.9,0.1,32.9,23.3c0,10.8-9.5,18.8-25.8,18.8C809.8,142.5,799.4,139.1,793.4,133.8z"/>
		<path style="&st0;" d="M858.8,141.1v-40.9h-9.4V84.5h9.4v-2.8c0-12,8.4-19.9,20.3-19.9c6.1,0,12.4,1.6,16.3,5.6l-6.7,10.3
			c-1.4-1.5-3-2.2-5.6-2.2c-3.4,0-6.2,2.2-6.2,6.2v2.8h11.5v15.7h-11.5v40.9H858.8z"/>
		<path style="&st0;" d="M892.1,112.7c0-15.9,11.6-29.7,30.8-29.7c19.5,0,30.9,13.7,30.9,29.7c0,15.9-11.5,29.8-30.9,29.8
			C903.7,142.5,892.1,128.6,892.1,112.7z M935.3,112.7c0-7.5-4.5-13.7-12.4-13.7c-7.9,0-12.2,6.2-12.2,13.7
			c0,7.6,4.3,13.8,12.2,13.8C930.9,126.5,935.3,120.3,935.3,112.7z"/>
		<path style="&st0;" d="M963.3,141.1V84.5h18v6.9c3.8-4.6,10.9-8.4,17.7-8.4v17.3c-1.1-0.2-2.6-0.5-4.5-0.5c-4.7,0-10.9,2-13.2,5.2
			v36.1H963.3z"/>
		<path style="&st0;" d="M1078.7,141.1v-34.5c0-4.3-2.1-7.6-7.5-7.6c-4.9,0-8.4,3.2-10.2,5.5v36.6h-18v-34.5c0-4.3-2-7.6-7.5-7.6
			c-4.8,0-8.2,3.2-10.1,5.5v36.6h-18V84.5h18v6.9c2.5-3.3,9.7-8.3,18.6-8.3c8.1,0,13.7,3.4,16.1,10.1c3.3-4.9,10.7-10.1,19.6-10.1
			c10.4,0,17,5.4,17,17v41H1078.7z"/>
		<path style="&st0;" d="M1108.6,69c0-5.7,4.6-10.3,10.3-10.3s10.3,4.6,10.3,10.3c0,5.7-4.6,10.4-10.3,10.4S1108.6,74.7,1108.6,69z
			 M1109.9,141.1V84.5h18v56.6H1109.9z"/>
		<path style="&st0;" d="M1179.4,141.1v-32.7c0-6.9-3.6-9.4-9.3-9.4c-5.4,0-8.9,2.9-11,5.5v36.6h-18V84.5h18v6.9
			c3.4-4,10.1-8.3,19.6-8.3c12.9,0,18.8,7.5,18.8,17.9v40.1H1179.4z"/>
		<path style="&st0;" d="M1209,155.6l7.9-12.9c4.3,4.7,10.7,6.6,17.2,6.6c6,0,14.4-2.5,14.4-13v-4.3c-4.7,5.5-10.3,8.2-16.8,8.2
			c-13.8,0-25-9.5-25-28.6c0-18.6,10.8-28.5,25-28.5c6.3,0,12.2,2.5,16.8,8.1v-6.7h17.9V136c0,23.1-18.3,28-32.3,28
			C1224.4,164,1216.3,161.6,1209,155.6z M1248.5,119.2V104c-2.2-3-7-5-10.8-5c-7.1,0-12.4,4.3-12.4,12.5c0,8.3,5.3,12.7,12.4,12.7
			C1241.5,124.2,1246.3,122.2,1248.5,119.2z"/>
		<path style="&st0;" d="M1327.7,134.4v28.2h-18V84.5h18V91c4.5-5.4,10.3-8,16.8-8c14.2,0,24.8,10.5,24.8,29.7
			c0,19.2-10.7,29.8-24.8,29.8C1338.2,142.5,1332.4,140,1327.7,134.4z M1350.9,112.7c0-8.4-5.4-13.7-12.4-13.7
			c-3.9,0-8.6,2.1-10.8,5.2v17.2c2.2,2.9,6.9,5.2,10.8,5.2C1345.6,126.5,1350.9,121.3,1350.9,112.7z"/>
		<path style="&st0;" d="M1375,112.7c0-16.4,12.4-29.7,30.1-29.7c16.8,0,28.9,12.3,28.9,31.5v3.9h-40.3c1.1,5.3,6,10.1,14.2,10.1
			c4,0,10.9-1.8,14.1-4.8l7.6,11.3c-5.6,5-15,7.5-23.7,7.5C1388.4,142.5,1375,131.1,1375,112.7z M1405.1,97
			c-7.9,0-10.9,5.6-11.6,9.7h23.3C1416.3,102.7,1413.4,97,1405.1,97z"/>
		<path style="&st0;" d="M1442.9,141.1V84.5h18v6.9c3.8-4.6,10.9-8.4,17.7-8.4v17.3c-1.1-0.2-2.6-0.5-4.5-0.5
			c-4.7,0-10.9,2-13.2,5.2v36.1H1442.9z"/>
		<path style="&st0;" d="M1490.8,141.1v-40.9h-9.4V84.5h9.4v-2.8c0-12,8.4-19.9,20.3-19.9c6.1,0,12.4,1.6,16.3,5.6l-6.7,10.3
			c-1.4-1.5-3-2.2-5.6-2.2c-3.4,0-6.2,2.2-6.2,6.2v2.8h11.5v15.7h-11.5v40.9H1490.8z"/>
		<path style="&st0;" d="M1524.1,112.7c0-15.9,11.6-29.7,30.8-29.7c19.5,0,30.9,13.7,30.9,29.7c0,15.9-11.5,29.8-30.9,29.8
			C1535.7,142.5,1524.1,128.6,1524.1,112.7z M1567.3,112.7c0-7.5-4.5-13.7-12.4-13.7c-7.9,0-12.2,6.2-12.2,13.7
			c0,7.6,4.3,13.8,12.2,13.8C1562.8,126.5,1567.3,120.3,1567.3,112.7z"/>
		<path style="&st0;" d="M1595.3,141.1V84.5h18v6.9c3.8-4.6,10.9-8.4,17.7-8.4v17.3c-1.1-0.2-2.6-0.5-4.5-0.5
			c-4.7,0-10.9,2-13.2,5.2v36.1H1595.3z"/>
		<path style="&st0;" d="M1710.6,141.1v-34.5c0-4.3-2.1-7.6-7.5-7.6c-4.9,0-8.4,3.2-10.2,5.5v36.6h-18v-34.5c0-4.3-2-7.6-7.5-7.6
			c-4.8,0-8.2,3.2-10.1,5.5v36.6h-18V84.5h18v6.9c2.5-3.3,9.7-8.3,18.6-8.3c8.1,0,13.7,3.4,16.1,10.1c3.3-4.9,10.7-10.1,19.6-10.1
			c10.4,0,17,5.4,17,17v41H1710.6z"/>
		<path style="&st0;" d="M1775.2,141.1v-5.6c-3.5,4.2-10.3,7-17.6,7c-8.7,0-19.5-5.9-19.5-18.6c0-13.7,10.8-18.2,19.5-18.2
			c7.5,0,14.2,2.3,17.6,6.6v-6.8c0-4.9-4.2-8.2-11.5-8.2c-5.6,0-11.5,2.1-16.1,6l-6.4-11.4c7.3-6.2,17-8.8,25.7-8.8
			c13.6,0,26.4,5,26.4,22.6v35.4H1775.2z M1775.2,126.5v-5c-1.9-2.6-6.1-4-10.1-4c-4.8,0-9,2.1-9,6.6c0,4.5,4.2,6.6,9,6.6
			C1769.1,130.6,1773.3,129.2,1775.2,126.5z"/>
		<path style="&st0;" d="M1844.7,141.1v-32.7c0-6.9-3.6-9.4-9.3-9.4c-5.4,0-8.9,2.9-11,5.5v36.6h-18V84.5h18v6.9
			c3.4-4,10.1-8.3,19.6-8.3c12.9,0,18.8,7.5,18.8,17.9v40.1H1844.7z"/>
		<path style="&st0;" d="M1872.2,112.7c0-17.7,13.2-29.7,30.9-29.7c12.2,0,19.8,5.4,23.2,10.4l-11.7,10.9c-2.2-3.3-5.9-5.4-10.7-5.4
			c-7.5,0-13.2,5.2-13.2,13.7c0,8.6,5.7,13.8,13.2,13.8c4.8,0,8.4-2.3,10.7-5.5l11.7,11c-3.4,4.9-11,10.4-23.2,10.4
			C1885.4,142.5,1872.2,130.5,1872.2,112.7z"/>
		<path style="&st0;" d="M1930.8,112.7c0-16.4,12.4-29.7,30.1-29.7c16.8,0,28.9,12.3,28.9,31.5v3.9h-40.3c1.1,5.3,6,10.1,14.2,10.1
			c4,0,10.9-1.8,14.1-4.8l7.6,11.3c-5.6,5-15,7.5-23.7,7.5C1944.2,142.5,1930.8,131.1,1930.8,112.7z M1960.9,97
			c-7.9,0-10.9,5.6-11.6,9.7h23.3C1972.1,102.7,1969.2,97,1960.9,97z"/>
		<path style="&st0;" d="M584.9,246.2v-50.9H573v-6.8h11.8v-19.5h7.8v19.5h14.5v6.8h-14.5V245c0,5.8,2.4,9.8,7.4,9.8
			c3.4,0,6.4-1.6,8-3.4l3,5.9c-2.8,2.7-6.2,4.4-12.1,4.4C589.5,261.7,584.9,255.9,584.9,246.2z"/>
		<path style="&st0;" d="M672.3,259.9v-48.7c0-13.8-7-17.6-17.3-17.6c-9.2,0-18.6,5.8-23.2,12.3v54h-7.7v-98.7h7.7v38
			c5.2-6.2,15.4-12.6,25.7-12.6c14.5,0,22.5,6.8,22.5,22.9v50.3H672.3z"/>
		<path style="&st0;" d="M704,259.9v-71.5h7.7v12.3c6.1-8,14.2-13.8,24.1-13.8v8.4c-1.3-0.3-2.4-0.3-3.8-0.3
			c-7.2,0-17,6.5-20.3,12.7v52.1H704z"/>
		<path style="&st0;" d="M746.7,224.1c0-20.9,13.5-37.4,34.3-37.4c21.2,0,34.5,16.6,34.5,37.4c0,20.9-13.3,37.6-34.5,37.6
			C760.2,261.7,746.7,245,746.7,224.1z M807.3,224.1c0-15.8-9.3-30.5-26.2-30.5c-16.6,0-26,14.6-26,30.5c0,16,9.5,30.6,26,30.6
			C797.9,254.8,807.3,240.1,807.3,224.1z"/>
		<path style="&st0;" d="M883.6,259.9v-10.5c-5.9,6.5-15.4,12.3-25.7,12.3c-14.6,0-22.5-6.8-22.5-22.9v-50.3h7.7V237
			c0,13.9,7,17.8,17.3,17.8c9.2,0,18.5-5.5,23.2-11.8v-54.5h7.7v71.5H883.6z"/>
		<path style="&st0;" d="M915.4,278.1l4.4-5.9c6.2,7.4,13,10.1,23.7,10.1c13,0,24.4-6.5,24.4-22.9v-11.2c-5,7.3-14.2,13.3-24.9,13.3
			c-18.9,0-32-14.4-32-37.3c0-22.6,13-37.4,32-37.4c10.2,0,19.1,5.2,24.9,13.3v-11.5h7.8v70.7c0,21.9-14.8,29.7-32.3,29.7
			C931.5,288.9,923.9,286.7,915.4,278.1z M967.9,241.4v-34.8c-4.1-7-13.6-13-23.5-13c-15.8,0-25,13.2-25,30.5
			c0,17.3,9.2,30.3,25,30.3C954.3,254.5,963.8,248.4,967.9,241.4z"/>
		<path style="&st0;" d="M1047.8,259.9v-48.7c0-13.8-7-17.6-17.3-17.6c-9.2,0-18.6,5.8-23.2,12.3v54h-7.7v-98.7h7.7v38
			c5.2-6.2,15.4-12.6,25.7-12.6c14.5,0,22.5,6.8,22.5,22.9v50.3H1047.8z"/>
		<path style="&st0;" d="M1117.8,259.9v-98.7h7.7v98.7H1117.8z"/>
		<path style="&st0;" d="M1145.3,224.1c0-20.7,14.6-37.4,34.5-37.4c21.8,0,33.7,17.3,33.7,37.9v2.1h-59.8
			c0.7,15.5,11.1,28.4,28,28.4c9,0,17.3-3.4,23.4-9.9l4,5c-7.1,7.4-16.1,11.5-28,11.5C1160.3,261.7,1145.3,246.2,1145.3,224.1z
			 M1179.7,193.4c-16.9,0-25.3,14.8-25.9,27.2h51.9C1205.6,208.4,1197.6,193.4,1179.7,193.4z"/>
		<path style="&st0;" d="M1278.8,259.9v-8.4c-6.4,7-14.4,10.2-24.3,10.2c-12.3,0-25-8.4-25-23.8c0-15.5,12.6-23.7,25-23.7
			c9.9,0,18.1,3.3,24.3,10.2v-14.5c0-10.7-8.6-16.4-19.2-16.4c-8.9,0-15.8,3.1-22.3,10.5l-4.3-5.3c7.4-8,15.7-12,27.5-12
			c14.5,0,26,7,26,22.9v50.3H1278.8z M1278.8,245.9v-15.7c-5-6.5-13-9.9-21.6-9.9c-11.8,0-19.5,7.5-19.5,17.8
			c0,10.1,7.7,17.6,19.5,17.6C1265.8,255.6,1273.8,252.4,1278.8,245.9z"/>
		<path style="&st0;" d="M1310.5,259.9v-71.5h7.7v12.3c6.1-8,14.2-13.8,24.1-13.8v8.4c-1.3-0.3-2.4-0.3-3.8-0.3
			c-7.2,0-17,6.5-20.3,12.7v52.1H1310.5z"/>
		<path style="&st0;" d="M1405.6,259.9v-48.4c0-13.8-7-17.9-17.3-17.9c-9.2,0-18.6,5.8-23.2,12.3v54h-7.7v-71.5h7.7v10.8
			c5.2-6.2,15.4-12.6,25.7-12.6c14.5,0,22.5,7.1,22.5,23.2v50H1405.6z"/>
		<path style="&st0;" d="M1435.2,171.3c0-3.3,2.8-5.8,5.9-5.8c3.3,0,5.9,2.5,5.9,5.8c0,3.3-2.7,5.9-5.9,5.9
			C1438,177.2,1435.2,174.6,1435.2,171.3z M1437.3,259.9v-71.5h7.7v71.5H1437.3z"/>
		<path style="&st0;" d="M1517.2,259.9v-48.4c0-13.8-7-17.9-17.3-17.9c-9.2,0-18.6,5.8-23.2,12.3v54h-7.7v-71.5h7.7v10.8
			c5.2-6.2,15.4-12.6,25.7-12.6c14.5,0,22.5,7.1,22.5,23.2v50H1517.2z"/>
		<path style="&st0;" d="M1549,278.1l4.4-5.9c6.2,7.4,13,10.1,23.7,10.1c13,0,24.4-6.5,24.4-22.9v-11.2c-5,7.3-14.2,13.3-24.9,13.3
			c-18.9,0-32-14.4-32-37.3c0-22.6,13-37.4,32-37.4c10.2,0,19.1,5.2,24.9,13.3v-11.5h7.8v70.7c0,21.9-14.8,29.7-32.3,29.7
			C1565.1,288.9,1557.4,286.7,1549,278.1z M1601.5,241.4v-34.8c-4.1-7-13.6-13-23.5-13c-15.8,0-25,13.2-25,30.5
			c0,17.3,9.2,30.3,25,30.3C1587.9,254.5,1597.4,248.4,1601.5,241.4z"/>
	</g>
</g>
<g>
</g>
<g>
</g>
<g>
</g>
<g>
</g>
<g>
</g>
<g>
</g>
<g>
</g>
<g>
</g>
<g>
</g>
<g>
</g>
<g>
</g>
<g>
</g>
<g>
</g>
<g>
</g>
<g>
</g>
</svg>
